<?xml version="1.0" encoding="utf-8"?>
<!-- Generator: Adobe Illustrator 22.0.1, SVG Export Plug-In . SVG Version: 6.00 Build 0)  -->
<svg version="1.1" id="Capa_1" xmlns="http://www.w3.org/2000/svg" xmlns:xlink="http://www.w3.org/1999/xlink" x="0px" y="0px"
	 viewBox="0 0 58 58" style="enable-background:new 0 0 58 58;" xml:space="preserve">
<g>
	<path d="M44,28c-0.6,0-1,0.4-1,1v6c0,7.7-6.3,14-14,14s-14-6.3-14-14v-6c0-0.6-0.4-1-1-1s-1,0.4-1,1v6c0,8.5,6.6,15.4,15,15.9V56
		h-5c-0.6,0-1,0.4-1,1s0.4,1,1,1h12c0.6,0,1-0.4,1-1s-0.4-1-1-1h-5v-5.1c8.4-0.5,15-7.5,15-15.9v-6C45,28.4,44.6,28,44,28z"/>
	<path d="M29,0c-6.1,0-11,4.9-11,11v24c0,6.1,4.9,11,11,11s11-4.9,11-11V11C40,4.9,35.1,0,29,0z M23.7,35.9c-0.5,0-0.8-0.4-0.8-0.8
		s0.4-0.8,0.8-0.8s0.8,0.4,0.8,0.8S24.1,35.9,23.7,35.9z M23.7,31.9c-0.5,0-0.8-0.4-0.8-0.8s0.4-0.8,0.8-0.8s0.8,0.4,0.8,0.8
		S24.1,31.9,23.7,31.9z M23.7,27.8c-0.5,0-0.8-0.4-0.8-0.8s0.4-0.8,0.8-0.8s0.8,0.4,0.8,0.8S24.1,27.8,23.7,27.8z M23.7,23.8
		c-0.5,0-0.8-0.4-0.8-0.8s0.4-0.8,0.8-0.8s0.8,0.4,0.8,0.8S24.1,23.8,23.7,23.8z M23.7,19.8c-0.5,0-0.8-0.4-0.8-0.8s0.4-0.8,0.8-0.8
		s0.8,0.4,0.8,0.8S24.1,19.8,23.7,19.8z M23.7,15.8c-0.5,0-0.8-0.4-0.8-0.8s0.4-0.8,0.8-0.8s0.8,0.4,0.8,0.8S24.1,15.8,23.7,15.8z
		 M23.7,11.8c-0.5,0-0.8-0.4-0.8-0.8s0.4-0.8,0.8-0.8s0.8,0.4,0.8,0.8S24.1,11.8,23.7,11.8z M35.2,35.4h-8c-0.2,0-0.4-0.2-0.4-0.4
		s0.2-0.4,0.4-0.4h8c0.2,0,0.4,0.2,0.4,0.4S35.4,35.4,35.2,35.4z M35.2,31.4h-8c-0.2,0-0.4-0.2-0.4-0.4s0.2-0.4,0.4-0.4h8
		c0.2,0,0.4,0.2,0.4,0.4S35.4,31.4,35.2,31.4z M35.2,27.4h-8c-0.2,0-0.4-0.2-0.4-0.4s0.2-0.4,0.4-0.4h8c0.2,0,0.4,0.2,0.4,0.4
		S35.4,27.4,35.2,27.4z M35.2,23.4h-8c-0.2,0-0.4-0.2-0.4-0.4s0.2-0.4,0.4-0.4h8c0.2,0,0.4,0.2,0.4,0.4S35.4,23.4,35.2,23.4z
		 M35.2,19.4h-8c-0.2,0-0.4-0.2-0.4-0.4s0.2-0.4,0.4-0.4h8c0.2,0,0.4,0.2,0.4,0.4S35.4,19.4,35.2,19.4z M35.2,15.4h-8
		c-0.2,0-0.4-0.2-0.4-0.4s0.2-0.4,0.4-0.4h8c0.2,0,0.4,0.2,0.4,0.4S35.4,15.4,35.2,15.4z M35.2,11.4h-8c-0.2,0-0.4-0.2-0.4-0.4
		s0.2-0.4,0.4-0.4h8c0.2,0,0.4,0.2,0.4,0.4S35.4,11.4,35.2,11.4z"/>
</g>
</svg>
